<svg xmlns="http://www.w3.org/2000/svg" width="50" height="67" viewBox="0 0 50 67" fill="none">
<path d="M48.6701 19.6741L30.5606 1.38853C30.2673 1.09518 29.9478 0.847458 29.6023 0.638853C29.5111 0.586701 29.4198 0.53455 29.322 0.488918C29.2634 0.456323 29.1982 0.430248 29.1395 0.404172C28.5528 0.143416 27.9074 0 27.249 0H4.7588C2.16428 0 0 2.09909 0 4.69361V62.06C0 64.6545 2.16428 66.7536 4.7588 66.7536H45.3716C47.9661 66.7536 50 64.6545 50 62.06V22.9791C50 21.7405 49.5437 20.5541 48.6701 19.6741ZM29.661 7.19687L42.751 20.339H29.661V7.19687ZM45.3064 62.06H4.69361V4.69361H24.9674V20.339C24.9674 22.9335 27.1317 25.0326 29.7262 25.0326H45.3064V62.06ZM14.472 45.4042C14.472 46.9817 13.9831 47.4511 13.0443 47.4511C12.4576 47.4511 11.8448 47.073 11.4276 46.2451L9.44589 47.7184C10.3194 49.2112 11.5515 49.9478 13.442 49.9478C16.1538 49.9478 17.4055 47.9987 17.4055 45.6323V37.6141H14.472V45.4042ZM24.3351 37.6141H20.1434V49.7392H23.0117V45.6975H24.4198C26.9687 45.6975 29.1851 44.4198 29.1851 41.5515C29.1851 38.5658 27.0013 37.6141 24.3351 37.6141ZM24.2829 43.4159H23.0117V39.9609H24.1982C25.5997 39.9609 26.3755 40.3651 26.3755 41.5841C26.3755 42.764 25.691 43.4159 24.2829 43.4159ZM36.1799 42.8292V45.176H38.1356V47.1382C37.8748 47.3272 37.4185 47.4446 36.9817 47.4446C34.7458 47.4446 33.6767 46.0495 33.6767 43.6506C33.6767 41.2973 34.9609 39.9087 36.7471 39.9087C37.7445 39.9087 38.3768 40.3129 38.9635 40.8475L40.5085 39.0026C39.6806 38.1682 38.4159 37.425 36.6493 37.425C33.4159 37.425 30.7106 39.7262 30.7106 43.7484C30.7106 47.8357 33.3181 49.9478 36.6754 49.9478C38.3638 49.9478 39.8827 49.2829 40.6845 48.4746V42.8292H36.1799Z" fill="#C9184A"/>
</svg>