<svg xmlns="http://www.w3.org/2000/svg" width="50" height="63" viewBox="0 0 50 63" fill="none">
<path d="M31.25 0H6.25C4.5924 0 3.00268 0.65848 1.83058 1.83058C0.65848 3.00268 0 4.5924 0 6.25V56.25C0 57.9076 0.65848 59.4973 1.83058 60.6694C3.00268 61.8415 4.5924 62.5 6.25 62.5H43.75C45.4076 62.5 46.9973 61.8415 48.1694 60.6694C49.3415 59.4973 50 57.9076 50 56.25V18.75L31.25 0ZM15.7187 44.0781C14.7406 44.9937 13.3 45.4094 11.6156 45.4094C11.2406 45.4094 10.9 45.3875 10.6406 45.35V49.8656H7.80938V37.4062C9.0865 37.2137 10.3773 37.1269 11.6688 37.1469C13.4281 37.1469 14.6875 37.4813 15.5281 38.1562C16.3344 38.7938 16.8781 39.8438 16.8781 41.0812C16.8781 42.3187 16.4688 43.3656 15.7187 44.0781ZM29.1625 49.8688H26.1625L23.4656 44.9938C22.7156 43.6438 21.8906 42.0156 21.275 40.5344L21.2156 40.5531C21.2906 42.2219 21.3281 44.0031 21.3281 46.0625V49.8688H18.7031V37.2375H22.0375L24.6625 41.8656C25.4125 43.1969 26.1594 44.7719 26.7219 46.1937H26.7812C26.5996 44.4446 26.5182 42.6865 26.5375 40.9281V37.2344H29.1625V49.8688ZM42.1906 49.2875C40.8298 49.7379 39.4083 49.9782 37.975 50C35.6719 50 34.0031 49.4188 32.8375 48.2938C31.6781 47.2063 31.0406 45.5594 31.0594 43.7031C31.0781 39.5031 34.1312 37.1062 38.275 37.1062C39.9031 37.1062 41.1625 37.4281 41.7781 37.725L41.1812 40.0094C40.4875 39.7094 39.625 39.4656 38.2406 39.4656C35.8594 39.4656 34.0594 40.8156 34.0594 43.5531C34.0594 46.1562 35.6906 47.6937 38.0312 47.6937C38.6875 47.6937 39.2125 47.6188 39.4375 47.5031V44.8594H37.4875V42.6313H42.1906V49.2875ZM31.25 21.875H28.125V6.25L43.75 21.875H31.25Z" fill="#C9184A"/>
</svg>